<?xml version="1.0" standalone="no"?><!-- Generator: Gravit.io -->
<svg xmlns="http://www.w3.org/2000/svg" xmlns:xlink="http://www.w3.org/1999/xlink"
	 style="isolation:isolate" viewBox="232.612 288.821 169.348 109.179" width="169.348"
	 height="109.179">
	<g>
		<path
			d=" M 382.96 349.821 L 368.96 349.821 L 368.96 314.821 L 382.96 307.821 L 382.96 349.821 Z "
			fill="rgb(55,49,49)"/>
		<path
			d=" M 292.134 354.827 L 379.96 315.39 L 379.96 305.547 L 292.134 343.094 L 292.134 354.827 Z "
			fill="rgb(55,49,49)"/>
		<path
			d=" M 280.96 340.109 L 401.96 288.821 L 401.96 340.109 L 382.96 349.972 L 382.96 308.547 L 265.96 360.821 L 259.96 349.972 L 280.96 340.109 Z "
			fill="rgb(115,102,102)"/>
		<path
			d=" M 401.96 288.821 L 382.96 288.821 L 280.96 332.821 L 292.134 340.109 L 401.96 288.821 Z "
			fill="rgb(115,102,102)"/>
		<g>
			<path
				d=" M 232.755 354.125 C 230.958 328.501 246.297 306.519 266.988 305.068 C 287.679 303.617 305.937 323.243 307.734 348.867 C 309.531 374.492 294.191 396.473 273.5 397.924 C 252.809 399.375 234.552 379.75 232.755 354.125 Z "
				fill="rgb(55,49,49)"/>
			<path
				d=" M 239.241 352.316 C 237.564 328.406 252.144 307.876 271.779 306.499 C 291.414 305.122 308.716 323.416 310.393 347.326 C 312.07 371.236 297.49 391.766 277.855 393.143 C 258.22 394.52 240.917 376.226 239.241 352.316 Z "
				fill="rgb(115,102,102)"/>
			<path
				d=" M 260.038 353.084 C 259.196 348.171 261.788 343.621 265.822 342.929 C 269.856 342.238 273.816 345.665 274.658 350.578 C 275.5 355.49 272.909 360.041 268.874 360.732 C 264.84 361.424 260.88 357.997 260.038 353.084 Z "
				fill="salmon"/>
		</g>
	</g>
</svg>
