<svg width="1080" height="281" viewBox="0 0 1080 281" fill="none" xmlns="http://www.w3.org/2000/svg">
<path d="M321.91 19H315.84V262.34H321.91V19Z" fill="#1E2D5D"/>
<path d="M206.95 254.36C206.85 254.36 206.76 254.36 206.66 254.36C198.55 254.24 191.29 249.33 188.17 241.84C165.65 187.77 154.26 163.83 151.31 159.68C143.65 150.46 132.4 145.18 120.43 145.18C112.05 145.18 104.02 147.74 97.22 152.57L80.8 129.47C92.43 121.21 106.13 116.84 120.43 116.84C140.94 116.84 160.2 125.92 173.26 141.75C175.27 144.18 180.34 150.33 207.29 214.14L240.11 142.85L265.86 154.71L225.45 242.49C222.21 249.68 214.95 254.36 206.95 254.36ZM199.71 230.61C199.69 230.65 199.67 230.69 199.66 230.73L199.71 230.61Z" fill="#82CDBF"/>
<path d="M120.34 253.78C82.58 253.78 51.87 223.06 51.87 185.31C51.87 147.55 82.59 116.84 120.34 116.84C134.64 116.84 148.35 121.21 159.98 129.47L143.56 152.57C136.76 147.74 128.73 145.18 120.35 145.18C98.22 145.18 80.22 163.18 80.22 185.31C80.22 207.43 98.22 225.43 120.35 225.43C128.74 225.43 136.76 222.87 143.56 218.04L159.98 241.14C148.36 249.41 134.65 253.78 120.34 253.78Z" fill="#82CDBF"/>
<path d="M120.58 205.3C131.62 205.3 140.57 196.35 140.57 185.31C140.57 174.27 131.62 165.32 120.58 165.32C109.54 165.32 100.59 174.27 100.59 185.31C100.59 196.35 109.54 205.3 120.58 205.3Z" fill="#7693CB"/>
<path d="M269.96 112.72L224.67 144.64L274.96 167.9L269.96 112.72Z" fill="#82CDBF"/>
<path d="M120.58 88.76C137.911 88.76 151.96 74.7107 151.96 57.38C151.96 40.0493 137.911 26 120.58 26C103.249 26 89.2 40.0493 89.2 57.38C89.2 74.7107 103.249 88.76 120.58 88.76Z" stroke="#7693CB" stroke-width="29.9653" stroke-miterlimit="10"/>
<path d="M391.89 125.93C397.07 123.05 402.87 121.61 409.29 121.61C418.99 121.61 427.1 125.02 433.6 131.85L441.62 124.08C437.67 119.64 432.9 116.29 427.31 114.02C421.72 111.76 415.55 110.63 408.8 110.63C400.16 110.63 392.35 112.54 385.36 116.37C378.37 120.19 372.9 125.46 368.95 132.16C365 138.86 363.03 146.41 363.03 154.8C363.03 163.19 365 170.74 368.95 177.44C372.9 184.14 378.35 189.41 385.3 193.23C392.25 197.05 400.04 198.97 408.68 198.97C415.42 198.97 421.61 197.82 427.25 195.51C432.88 193.21 437.68 189.84 441.62 185.39L433.6 177.62C427.02 184.53 418.92 187.98 409.29 187.98C402.87 187.98 397.08 186.54 391.89 183.66C386.71 180.78 382.66 176.81 379.74 171.75C376.82 166.69 375.36 161.04 375.36 154.79C375.36 148.54 376.82 142.88 379.74 137.83C382.66 132.78 386.71 128.81 391.89 125.93Z" fill="#1E2D5D"/>
<path d="M519.34 119.64C512.92 114.3 504.12 111.62 492.94 111.62H459.26V197.98H471.6V171.82H492.94C504.12 171.82 512.93 169.15 519.34 163.8C525.76 158.45 528.96 151.09 528.96 141.72C528.96 132.35 525.76 124.98 519.34 119.64ZM510.46 156.09C506.35 159.42 500.38 161.09 492.57 161.09H471.6V122.35H492.57C500.38 122.35 506.35 124.02 510.46 127.35C514.57 130.68 516.63 135.47 516.63 141.72C516.63 147.97 514.57 152.76 510.46 156.09Z" fill="#1E2D5D"/>
<path d="M607.8 117.05C600.72 113.43 592.63 111.62 583.49 111.62H547.09V197.98H583.49C592.62 197.98 600.72 196.17 607.8 192.55C614.87 188.93 620.36 183.85 624.27 177.31C628.17 170.77 630.13 163.27 630.13 154.79C630.13 146.32 628.18 138.81 624.27 132.27C620.36 125.74 614.87 120.67 607.8 117.05ZM613.47 171.76C610.59 176.66 606.5 180.46 601.19 183.17C595.89 185.89 589.74 187.24 582.75 187.24H559.43V122.34H582.75C589.74 122.34 595.89 123.7 601.19 126.41C606.5 129.12 610.59 132.93 613.47 137.82C616.35 142.71 617.79 148.37 617.79 154.78C617.79 161.19 616.35 166.87 613.47 171.76Z" fill="#1E2D5D"/>
<path d="M685.65 176.41L659.7 114.51H639.38L675.18 197.98H695.34L731.14 114.51H712.38L685.65 176.41Z" fill="#1E2D5D"/>
<path d="M772.56 113.57C765.68 113.57 759.17 114.46 753.02 116.23C746.87 118 741.61 120.56 737.23 123.89L744.89 138.12C748.02 135.52 751.85 133.48 756.38 132.02C760.91 130.56 765.53 129.83 770.21 129.83C777.09 129.83 782.27 131.39 785.76 134.52C789.25 137.65 791 142.13 791 147.96V149.21H769.43C757.44 149.21 748.66 151.48 743.09 156.01C737.51 160.54 734.73 166.56 734.73 174.06C734.73 178.86 736.01 183.15 738.56 186.96C741.11 190.76 744.74 193.73 749.42 195.87C754.1 198.01 759.58 199.07 765.83 199.07C772.08 199.07 777.42 198.11 781.85 196.18C786.28 194.25 789.69 191.47 792.09 187.82V197.98H810.54V149.06C810.54 137.18 807.28 128.3 800.77 122.41C794.26 116.52 784.85 113.57 772.56 113.57ZM791 171.88C789.44 176.05 786.75 179.25 782.95 181.49C779.14 183.73 774.79 184.85 769.9 184.85C764.9 184.85 760.99 183.81 758.18 181.72C755.37 179.64 753.96 176.82 753.96 173.28C753.96 165.88 759.59 162.18 770.84 162.18H791V171.88Z" fill="#1E2D5D"/>
<path d="M855.09 82H835.55V197.98H855.09V82Z" fill="#1E2D5D"/>
<path d="M938.8 118.97C932.39 115.37 925.12 113.58 916.99 113.58C908.76 113.58 901.36 115.4 894.79 119.05C888.23 122.7 883.09 127.78 879.39 134.29C875.69 140.8 873.84 148.12 873.84 156.25C873.84 164.48 875.74 171.86 879.55 178.37C883.35 184.88 888.74 189.96 895.73 193.61C902.71 197.26 910.79 199.08 919.96 199.08C927.15 199.08 933.61 197.94 939.34 195.64C945.07 193.35 949.81 189.96 953.57 185.48L943.1 173.44C937.16 179.48 929.6 182.51 920.44 182.51C913.25 182.51 907.23 180.71 902.39 177.12C897.54 173.52 894.55 168.66 893.4 162.51H958.9C959.11 160.01 959.21 158.08 959.21 156.73C959.21 148.19 957.41 140.66 953.82 134.14C950.21 127.62 945.21 122.56 938.8 118.97ZM893.23 149.52C894.17 143.37 896.8 138.45 901.12 134.75C905.44 131.05 910.73 129.2 916.99 129.2C923.35 129.2 928.66 131.07 932.93 134.83C937.2 138.58 939.75 143.48 940.59 149.52H893.23Z" fill="#1E2D5D"/>
<path d="M1022.66 179.54C1019.74 181.83 1016.1 182.98 1011.72 182.98C1007.97 182.98 1005.1 181.91 1003.12 179.78C1001.14 177.64 1000.15 174.54 1000.15 170.48V130.78H1022.5V115.15H1000.15V96.0596H980.61V115.13H966.85V130.76H980.61V170.93C980.61 180.1 983.11 187.08 988.11 191.88C993.11 196.68 1000.2 199.07 1009.37 199.07C1013.02 199.07 1016.48 198.6 1019.77 197.66C1023.06 196.72 1025.84 195.32 1028.13 193.44L1022.66 179.54Z" fill="#1E2D5D"/>
</svg>
